<svg xmlns="http://www.w3.org/2000/svg" width="213.335" height="36.71" viewBox="0 0 213.335 36.71">
  <g id="Group_4125" data-name="Group 4125" transform="translate(-9966.206 1068.678)">
    <path id="Path_2672" data-name="Path 2672" d="M56.971,22.047l4.553,14.027,14.747,0L64.338,44.733,68.9,58.757,56.971,50.085,45.043,58.757l4.562-14.024L37.672,36.069l14.747,0Z" transform="translate(9928.534 -1090.725)" fill="#ffb530"/>
    <path id="Path_2678" data-name="Path 2678" d="M56.971,22.047l4.553,14.027,14.747,0L64.338,44.733,68.9,58.757,56.971,50.085,45.043,58.757l4.562-14.024L37.672,36.069l14.747,0Z" transform="translate(9972.219 -1090.725)" fill="#ffb530"/>
    <path id="Path_2684" data-name="Path 2684" d="M56.971,22.047l4.553,14.027,14.747,0L64.338,44.733,68.9,58.757,56.971,50.085,45.043,58.757l4.562-14.024L37.672,36.069l14.747,0Z" transform="translate(10059.586 -1090.725)" fill="#ffb530"/>
    <path id="Path_2690" data-name="Path 2690" d="M56.971,22.047l4.553,14.027,14.747,0L64.338,44.733,68.9,58.757,56.971,50.085,45.043,58.757l4.562-14.024L37.672,36.069l14.747,0Z" transform="translate(10015.902 -1090.725)" fill="#ffb530"/>
    <path id="Path_2691" data-name="Path 2691" d="M56.971,22.047l4.553,14.027,14.747,0L64.338,44.733,68.9,58.757,56.971,50.085,45.043,58.757l4.562-14.024L37.672,36.069l14.747,0Z" transform="translate(10103.27 -1090.725)" fill="#ffb530"/>
  </g>
</svg>
