<svg xmlns="http://www.w3.org/2000/svg" xmlns:xlink="http://www.w3.org/1999/xlink" width="201.794" height="37" viewBox="0 0 201.794 37">
  <defs>
    <clipPath id="clip-path">
      <rect id="Rectangle_4116" data-name="Rectangle 4116" width="27" height="37" transform="translate(0.058 -0.228)" fill="#fff" stroke="#707070" stroke-width="1" opacity="0.3"/>
    </clipPath>
  </defs>
  <g id="Group_4128" data-name="Group 4128" transform="translate(-9966.206 1261)">
    <path id="Path_2669" data-name="Path 2669" d="M56.971,22.047l4.553,14.027,14.747,0L64.338,44.733,68.9,58.757,56.971,50.085,45.043,58.757l4.562-14.024L37.672,36.069l14.747,0Z" transform="translate(9928.534 -1282.857)" fill="#ffb530"/>
    <path id="Path_2675" data-name="Path 2675" d="M56.971,22.047l4.553,14.027,14.747,0L64.338,44.733,68.9,58.757,56.971,50.085,45.043,58.757l4.562-14.024L37.672,36.069l14.747,0Z" transform="translate(9972.219 -1282.857)" fill="#ffb530"/>
    <path id="Path_2681" data-name="Path 2681" d="M56.971,22.047l4.553,14.027,14.747,0L64.338,44.733,68.9,58.757,56.971,50.085,45.043,58.757l4.562-14.024L37.672,36.069l14.747,0Z" transform="translate(10059.586 -1282.857)" fill="#ffb530"/>
    <path id="Path_2687" data-name="Path 2687" d="M56.971,22.047l4.553,14.027,14.747,0L64.338,44.733,68.9,58.757,56.971,50.085,45.043,58.757l4.562-14.024L37.672,36.069l14.747,0Z" transform="translate(10015.902 -1282.857)" fill="#ffb530"/>
    <g id="Mask_Group_890" data-name="Mask Group 890" transform="translate(10140.941 -1260.772)" clip-path="url(#clip-path)">
      <path id="Path_2694" data-name="Path 2694" d="M56.971,22.047l4.553,14.027,14.747,0L64.338,44.733,68.9,58.757,56.971,50.085,45.043,58.757l4.562-14.024L37.672,36.069l14.747,0Z" transform="translate(-37.672 -22.085)" fill="#ffb530"/>
    </g>
  </g>
</svg>
