<svg xmlns="http://www.w3.org/2000/svg" xmlns:xlink="http://www.w3.org/1999/xlink" width="197.794" height="37.062" viewBox="0 0 197.794 37.062">
  <defs>
    <clipPath id="clip-path">
      <rect id="Rectangle_4117" data-name="Rectangle 4117" width="23" height="37" transform="translate(0.058 0.024)" fill="#fff" stroke="#707070" stroke-width="1" opacity="0.3"/>
    </clipPath>
  </defs>
  <g id="Group_4129" data-name="Group 4129" transform="translate(-9966.206 1325.062)">
    <path id="Path_2668" data-name="Path 2668" d="M56.971,22.047l4.553,14.027,14.747,0L64.338,44.733,68.9,58.757,56.971,50.085,45.043,58.757l4.562-14.024L37.672,36.069l14.747,0Z" transform="translate(9928.534 -1347.109)" fill="#ffb530"/>
    <path id="Path_2674" data-name="Path 2674" d="M56.971,22.047l4.553,14.027,14.747,0L64.338,44.733,68.9,58.757,56.971,50.085,45.043,58.757l4.562-14.024L37.672,36.069l14.747,0Z" transform="translate(9972.219 -1347.109)" fill="#ffb530"/>
    <path id="Path_2680" data-name="Path 2680" d="M56.971,22.047l4.553,14.027,14.747,0L64.338,44.733,68.9,58.757,56.971,50.085,45.043,58.757l4.562-14.024L37.672,36.069l14.747,0Z" transform="translate(10059.586 -1347.109)" fill="#ffb530"/>
    <path id="Path_2686" data-name="Path 2686" d="M56.971,22.047l4.553,14.027,14.747,0L64.338,44.733,68.9,58.757,56.971,50.085,45.043,58.757l4.562-14.024L37.672,36.069l14.747,0Z" transform="translate(10015.902 -1347.109)" fill="#ffb530"/>
    <g id="Mask_Group_891" data-name="Mask Group 891" transform="translate(10140.941 -1325.024)" clip-path="url(#clip-path)">
      <path id="Path_2695" data-name="Path 2695" d="M56.971,22.047l4.553,14.027,14.747,0L64.338,44.733,68.9,58.757,56.971,50.085,45.043,58.757l4.562-14.024L37.672,36.069l14.747,0Z" transform="translate(-37.672 -22.085)" fill="#ffb530"/>
    </g>
  </g>
</svg>
