<svg xmlns="http://www.w3.org/2000/svg" xmlns:xlink="http://www.w3.org/1999/xlink" width="209.794" height="37.128" viewBox="0 0 209.794 37.128">
  <defs>
    <clipPath id="clip-path">
      <rect id="Rectangle_4114" data-name="Rectangle 4114" width="35" height="37" transform="translate(0.058 0.09)" fill="#fff" stroke="#707070" stroke-width="1" opacity="0.3"/>
    </clipPath>
  </defs>
  <g id="Group_4126" data-name="Group 4126" transform="translate(-9966.206 1132.128)">
    <path id="Path_2671" data-name="Path 2671" d="M56.971,22.047l4.553,14.027,14.747,0L64.338,44.733,68.9,58.757,56.971,50.085,45.043,58.757l4.562-14.024L37.672,36.069l14.747,0Z" transform="translate(9928.534 -1154.175)" fill="#ffb530"/>
    <path id="Path_2677" data-name="Path 2677" d="M56.971,22.047l4.553,14.027,14.747,0L64.338,44.733,68.9,58.757,56.971,50.085,45.043,58.757l4.562-14.024L37.672,36.069l14.747,0Z" transform="translate(9972.219 -1154.175)" fill="#ffb530"/>
    <path id="Path_2683" data-name="Path 2683" d="M56.971,22.047l4.553,14.027,14.747,0L64.338,44.733,68.9,58.757,56.971,50.085,45.043,58.757l4.562-14.024L37.672,36.069l14.747,0Z" transform="translate(10059.586 -1154.175)" fill="#ffb530"/>
    <path id="Path_2689" data-name="Path 2689" d="M56.971,22.047l4.553,14.027,14.747,0L64.338,44.733,68.9,58.757,56.971,50.085,45.043,58.757l4.562-14.024L37.672,36.069l14.747,0Z" transform="translate(10015.902 -1154.175)" fill="#ffb530"/>
    <g id="Mask_Group_888" data-name="Mask Group 888" transform="translate(10140.941 -1132.09)" clip-path="url(#clip-path)">
      <path id="Path_2692" data-name="Path 2692" d="M56.971,22.047l4.553,14.027,14.747,0L64.338,44.733,68.9,58.757,56.971,50.085,45.043,58.757l4.562-14.024L37.672,36.069l14.747,0Z" transform="translate(-37.672 -22.085)" fill="#ffb530"/>
    </g>
  </g>
</svg>
