<svg xmlns="http://www.w3.org/2000/svg" xmlns:xlink="http://www.w3.org/1999/xlink" width="205.794" height="37" viewBox="0 0 205.794 37">
  <defs>
    <clipPath id="clip-path">
      <rect id="Rectangle_4115" data-name="Rectangle 4115" width="31" height="37" transform="translate(0.058 -0.301)" fill="#fff" stroke="#707070" stroke-width="1" opacity="0.3"/>
    </clipPath>
  </defs>
  <g id="Group_4127" data-name="Group 4127" transform="translate(-9966.206 1197)">
    <path id="Path_2670" data-name="Path 2670" d="M56.971,22.047l4.553,14.027,14.747,0L64.338,44.733,68.9,58.757,56.971,50.085,45.043,58.757l4.562-14.024L37.672,36.069l14.747,0Z" transform="translate(9928.534 -1218.784)" fill="#ffb530"/>
    <path id="Path_2676" data-name="Path 2676" d="M56.971,22.047l4.553,14.027,14.747,0L64.338,44.733,68.9,58.757,56.971,50.085,45.043,58.757l4.562-14.024L37.672,36.069l14.747,0Z" transform="translate(9972.219 -1218.784)" fill="#ffb530"/>
    <path id="Path_2682" data-name="Path 2682" d="M56.971,22.047l4.553,14.027,14.747,0L64.338,44.733,68.9,58.757,56.971,50.085,45.043,58.757l4.562-14.024L37.672,36.069l14.747,0Z" transform="translate(10059.586 -1218.784)" fill="#ffb530"/>
    <path id="Path_2688" data-name="Path 2688" d="M56.971,22.047l4.553,14.027,14.747,0L64.338,44.733,68.9,58.757,56.971,50.085,45.043,58.757l4.562-14.024L37.672,36.069l14.747,0Z" transform="translate(10015.902 -1218.784)" fill="#ffb530"/>
    <g id="Mask_Group_889" data-name="Mask Group 889" transform="translate(10140.941 -1196.699)" clip-path="url(#clip-path)">
      <path id="Path_2693" data-name="Path 2693" d="M56.971,22.047l4.553,14.027,14.747,0L64.338,44.733,68.9,58.757,56.971,50.085,45.043,58.757l4.562-14.024L37.672,36.069l14.747,0Z" transform="translate(-37.672 -22.085)" fill="#ffb530"/>
    </g>
  </g>
</svg>
